<?xml version="1.0" encoding="UTF-8"?>
<svg version="1.1" xmlns="http://www.w3.org/2000/svg" width="128" height="128">
<path d="M0 0 C9.65399737 6.49550606 16.83021921 16.17360916 19.25 27.75 C20.29608798 40.04749252 20.31476017 51.71412493 14.25 62.75 C13.92 63.08 13.59 63.41 13.25 63.75 C14.04664062 63.98074219 14.84328125 64.21148437 15.6640625 64.44921875 C21.88986732 66.36543361 26.72524694 67.97387177 31.25 72.75 C31.25 73.41 31.25 74.07 31.25 74.75 C31.91 74.75 32.57 74.75 33.25 74.75 C35.03600324 80.10800972 34.81302042 84.2400816 32.875 89.4375 C29.94799599 93.95729064 25.25088684 96.13422615 20.25 97.75 C11.66315582 99.0480785 3.04860813 98.91395048 -5.61328125 98.91796875 C-7.25318937 98.92118904 -8.89309721 98.92455367 -10.53300476 98.92805481 C-13.95975408 98.93401789 -17.38647829 98.93589761 -20.81323242 98.93530273 C-25.17368086 98.93520125 -29.53396598 98.94885225 -33.8943758 98.96607494 C-37.27901428 98.97727004 -40.66361419 98.97921965 -44.04826927 98.97869301 C-45.65439606 98.97986188 -47.26052421 98.98422115 -48.86663246 98.99202538 C-74.50573053 99.10495771 -74.50573053 99.10495771 -82.75 92.75 C-85.71340287 89.27353037 -86.97853137 86.06789354 -87.0625 81.5 C-86.75 77.75 -86.75 77.75 -85.75 74.75 C-85.09 74.75 -84.43 74.75 -83.75 74.75 C-83.54375 74.1725 -83.3375 73.595 -83.125 73 C-80.59991788 68.86804744 -77.48789162 67.17550854 -72.91015625 66.0546875 C-70.19502049 65.55848508 -67.48499352 65.11985678 -64.75 64.75 C-65.25660156 63.698125 -65.25660156 63.698125 -65.7734375 62.625 C-71.86659497 49.66383266 -73.86403732 37.87186628 -69.84765625 23.73046875 C-64.50572025 9.22549663 -55.33456085 1.59226866 -41.88671875 -4.90234375 C-27.92526519 -10.90072666 -12.52958025 -7.40923758 0 0 Z " fill="#E2E3E3" transform="translate(89.75,24.25)"/>
<path d="M0 0 C1.96484375 1.6015625 1.96484375 1.6015625 3.9375 3.625 C14.91946189 13.9032274 27.17674723 16.47918693 41.734375 16.27734375 C53.50805429 15.86041113 62.81191146 10.32477093 70.875 2 C73.32110097 -0.21616748 74.40476906 -0.97023845 77.734375 -1.13671875 C83.30394448 -0.27117755 87.74766127 1.2928329 92 5 C93.375 7.25 93.375 7.25 94 9 C94.66 9 95.32 9 96 9 C97.78600324 14.35800972 97.56302042 18.4900816 95.625 23.6875 C92.69799599 28.20729064 88.00088684 30.38422615 83 32 C74.41315582 33.2980785 65.79860813 33.16395048 57.13671875 33.16796875 C55.49681063 33.17118904 53.85690279 33.17455367 52.21699524 33.17805481 C48.79024592 33.18401789 45.36352171 33.18589761 41.93676758 33.18530273 C37.57631914 33.18520125 33.21603402 33.19885225 28.8556242 33.21607494 C25.47098572 33.22727004 22.08638581 33.22921965 18.70173073 33.22869301 C17.09560394 33.22986188 15.48947579 33.23422115 13.88336754 33.24202538 C-11.75573053 33.35495771 -11.75573053 33.35495771 -20 27 C-22.96340287 23.52353037 -24.22853137 20.31789354 -24.3125 15.75 C-24 12 -24 12 -23 9 C-22.34 9 -21.68 9 -21 9 C-20.79375 8.4225 -20.5875 7.845 -20.375 7.25 C-17.74861981 2.95228696 -13.65744951 1.01693757 -8.9375 -0.3125 C-5.21848439 -0.96185193 -3.5110384 -1.08074151 0 0 Z " fill="#000000" transform="translate(27,90)"/>
<path d="M0 0 C0.99 0.33 1.98 0.66 3 1 C2.59007813 1.42410156 2.18015625 1.84820312 1.7578125 2.28515625 C-2.03077668 6.40909902 -3.87908934 9.50753777 -5 15 C-4.2265625 14.79503906 -3.453125 14.59007812 -2.65625 14.37890625 C3.24600322 12.85220956 8.94661114 11.67259876 15 11 C15.66 10.67 16.32 10.34 17 10 C19.3329866 9.95977609 21.66706666 9.95679753 24 10 C24.495 10.99 24.495 10.99 25 12 C24.34 12 23.68 12 23 12 C23 15.63 23 19.26 23 23 C14.42 23 5.84 23 -3 23 C-3 28.94 -3 34.88 -3 41 C5.58 41 14.16 41 23 41 C23 44.63 23 48.26 23 52 C27.46719541 50.21312183 28.99193494 49.37991612 32.171875 46.15625 C32.91824219 45.40472656 33.66460937 44.65320313 34.43359375 43.87890625 C35.19800781 43.09386719 35.96242187 42.30882812 36.75 41.5 C37.52988281 40.71496094 38.30976562 39.92992187 39.11328125 39.12109375 C43.01280156 35.40047453 43.01280156 35.40047453 46 31 C44.68 30.34 43.36 29.68 42 29 C43.875 23.25 43.875 23.25 45 21 C45.27571479 17.91899659 45.44663533 14.83828524 45.62109375 11.75 C46 9 46 9 48 7 C55.33344957 15.11917631 56.826466 23.15212755 56.37109375 33.83984375 C55.58863668 44.62117588 50.89278367 51.78448489 43 59 C33.55076496 66.42688953 22.58873361 67.16265198 11 66 C7.57158436 65.16542026 4.94139686 63.92484048 2 62 C1.31808594 61.5875 0.63617188 61.175 -0.06640625 60.75 C-7.87188496 55.53647342 -13.2691184 47.72598806 -15.56640625 38.63671875 C-17.47991646 27.00050804 -15.43900507 17.67545234 -8.68359375 8.08984375 C-6.19790891 5.00436489 -3.4925911 1.94502652 0 0 Z " fill="#5C9FCD" transform="translate(44,32)"/>
<path d="M0 0 C5.89040605 4.46440585 5.89040605 4.46440585 7.28125 7.24609375 C6.95125 7.90609375 6.62125 8.56609375 6.28125 9.24609375 C6.12648558 11.16058692 6.00645046 13.07797071 5.90625 14.99609375 C5.56092949 19.80180416 4.66816623 23.01474225 2.28125 27.24609375 C2.61125 28.23609375 2.94125 29.22609375 3.28125 30.24609375 C4.27125 30.74109375 4.27125 30.74109375 5.28125 31.24609375 C2.98729255 36.47895515 -1.11088341 40.0066111 -5.09375 43.99609375 C-5.86203125 44.78886719 -6.6303125 45.58164063 -7.421875 46.3984375 C-8.53949219 47.52185547 -8.53949219 47.52185547 -9.6796875 48.66796875 C-10.35821777 49.3547168 -11.03674805 50.04146484 -11.73583984 50.74902344 C-13.71875 52.24609375 -13.71875 52.24609375 -17.71875 52.24609375 C-17.71875 48.61609375 -17.71875 44.98609375 -17.71875 41.24609375 C-26.29875 41.24609375 -34.87875 41.24609375 -43.71875 41.24609375 C-43.71875 35.30609375 -43.71875 29.36609375 -43.71875 23.24609375 C-35.13875 23.24609375 -26.55875 23.24609375 -17.71875 23.24609375 C-17.71875 19.61609375 -17.71875 15.98609375 -17.71875 12.24609375 C-17.38875 11.91609375 -17.05875 11.58609375 -16.71875 11.24609375 C-21.8692963 11.03586737 -25.80552415 11.77212599 -30.71875 13.24609375 C-35.75465618 14.30628452 -40.56236448 15.24609375 -45.71875 15.24609375 C-45.45547346 8.7958186 -43.21210977 5.76693584 -38.71875 1.24609375 C-39.04875 0.58609375 -39.37875 -0.07390625 -39.71875 -0.75390625 C-38.30396865 -1.40385922 -36.88683513 -2.04869347 -35.46875 -2.69140625 C-34.67984375 -3.05105469 -33.8909375 -3.41070313 -33.078125 -3.78125 C-22.29237549 -8.22769309 -9.66618179 -6.23579831 0 0 Z " fill="#E2F2FB" transform="translate(84.71875,31.75390625)"/>
<path d="M0 0 C0.66 0 1.32 0 2 0 C1.98839844 1.04800781 1.97679687 2.09601562 1.96484375 3.17578125 C1.95546345 4.55468572 1.9463635 5.93359211 1.9375 7.3125 C1.92912109 8.00279297 1.92074219 8.69308594 1.91210938 9.40429688 C1.89692094 12.5483025 1.99806673 14.99420019 3 18 C3.1214813 20.53415636 3.18510284 23.0286978 3.1875 25.5625 C3.19974609 26.24763672 3.21199219 26.93277344 3.22460938 27.63867188 C3.22987533 29.42734112 3.12200021 31.21548848 3 33 C2.34 33.66 1.68 34.32 1 35 C0.49575459 40.24415224 0.9425502 43.68360028 4 48 C12.52623146 55.3925067 19.86791407 57.48436927 30.96875 57.24609375 C39.43935909 56.55840255 44.39116155 54.30994326 50 48 C50.66 48 51.32 48 52 48 C52.33 45.36 52.66 42.72 53 40 C52.67 40.99 52.34 41.98 52 43 C51.34 43 50.68 43 50 43 C47.95830515 40.09451118 47 38.59857954 47 35 C46.01 34.505 46.01 34.505 45 34 C45.49371094 33.51789063 45.98742187 33.03578125 46.49609375 32.5390625 C47.45708984 31.59160156 47.45708984 31.59160156 48.4375 30.625 C49.39462891 29.68527344 49.39462891 29.68527344 50.37109375 28.7265625 C52.07882176 27.08276939 52.07882176 27.08276939 53 25 C51.68 24.34 50.36 23.68 49 23 C50.875 17.25 50.875 17.25 52 15 C52.27571479 11.91899659 52.44663533 8.83828524 52.62109375 5.75 C53 3 53 3 55 1 C62.33344957 9.11917631 63.826466 17.15212755 63.37109375 27.83984375 C62.58863668 38.62117588 57.89278367 45.78448489 50 53 C40.55076496 60.42688953 29.58873361 61.16265198 18 60 C14.57158436 59.16542026 11.94139686 57.92484048 9 56 C8.31808594 55.5875 7.63617188 55.175 6.93359375 54.75 C-0.87188496 49.53647342 -6.2691184 41.72598806 -8.56640625 32.63671875 C-10.55374852 20.55152928 -8.12369507 11.65740869 -1.40234375 1.65234375 C-0.93957031 1.10707031 -0.47679687 0.56179687 0 0 Z " fill="#1E6FA2" transform="translate(37,38)"/>
<path d="M0 0 C5.89040605 4.46440585 5.89040605 4.46440585 7.28125 7.24609375 C6.95125 7.90609375 6.62125 8.56609375 6.28125 9.24609375 C6.15189845 11.14037538 6.05205021 13.03672902 5.96875 14.93359375 C5.56869031 20.47442043 4.4598624 23.73451486 1.28125 28.24609375 C-3.273537 24.44594601 -7.67154259 20.58943829 -11.71875 16.24609375 C-11.71875 15.58609375 -11.71875 14.92609375 -11.71875 14.24609375 C-12.37875 14.24609375 -13.03875 14.24609375 -13.71875 14.24609375 C-13.71875 13.58609375 -13.71875 12.92609375 -13.71875 12.24609375 C-19.77883137 10.22606663 -24.76433935 11.45977055 -30.71875 13.24609375 C-35.75465618 14.30628452 -40.56236448 15.24609375 -45.71875 15.24609375 C-45.45547346 8.7958186 -43.21210977 5.76693584 -38.71875 1.24609375 C-39.04875 0.58609375 -39.37875 -0.07390625 -39.71875 -0.75390625 C-38.30396865 -1.40385922 -36.88683513 -2.04869347 -35.46875 -2.69140625 C-34.67984375 -3.05105469 -33.8909375 -3.41070313 -33.078125 -3.78125 C-22.29237549 -8.22769309 -9.66618179 -6.23579831 0 0 Z " fill="#B7D3E7" transform="translate(84.71875,31.75390625)"/>
<path d="M0 0 C8.58 0 17.16 0 26 0 C26 3.63 26 7.26 26 11 C30.78655565 9.08537774 32.28321536 7.99239574 35.625 4.375 C37.9140625 1.8984375 37.9140625 1.8984375 40 0 C40.99 0 41.98 0 43 0 C43.66 1.32 44.32 2.64 45 4 C45.33 4 45.66 4 46 4 C45.78410966 9.39725838 44.63433474 12.03444149 40.9609375 15.73828125 C35.79233857 19.06389371 29.91816358 19.34095225 23.9375 19.3125 C23.25623047 19.32861328 22.57496094 19.34472656 21.87304688 19.36132812 C17.17456006 19.36584156 14.02608293 18.38047649 10 16 C10 15.34 10 14.68 10 14 C9.195625 14.020625 8.39125 14.04125 7.5625 14.0625 C5 14 5 14 4 13 C3.36517033 9.26155861 3 5.79819843 3 2 C2.01 1.34 1.02 0.68 0 0 Z " fill="#3CDBE9" transform="translate(41,73)"/>
<path d="M0 0 C4.18423892 3.50897269 8.19588166 7.08060535 12 11 C10.46563424 14.65564739 8.25017578 16.98698623 5.4375 19.75 C4.63183594 20.54921875 3.82617188 21.3484375 2.99609375 22.171875 C1 24 1 24 0 24 C0 22.02 0 20.04 0 18 C-8.58 18 -17.16 18 -26 18 C-26 14.04 -26 10.08 -26 6 C-17.42 6 -8.84 6 0 6 C0 4.02 0 2.04 0 0 Z " fill="#3CA5CD" transform="translate(73,52)"/>
<path d="M0 0 C0.66 0 1.32 0 2 0 C1.98839844 1.04800781 1.97679687 2.09601562 1.96484375 3.17578125 C1.95546345 4.55468572 1.9463635 5.93359211 1.9375 7.3125 C1.92912109 8.00279297 1.92074219 8.69308594 1.91210938 9.40429688 C1.89692094 12.5483025 1.99806673 14.99420019 3 18 C3.1214813 20.53415636 3.18510284 23.0286978 3.1875 25.5625 C3.19974609 26.24763672 3.21199219 26.93277344 3.22460938 27.63867188 C3.22987533 29.42734112 3.12200021 31.21548848 3 33 C2.34 33.66 1.68 34.32 1 35 C0.30251417 36.31747324 -0.36959957 37.64914193 -1 39 C-1.33 38.34 -1.66 37.68 -2 37 C-2.66 37.66 -3.32 38.32 -4 39 C-4.66 39 -5.32 39 -6 39 C-9.83378081 29.96323096 -10.61195376 20.46262799 -7.05859375 11.1796875 C-5.12788257 7.2042748 -2.86459113 3.37527033 0 0 Z " fill="#1B74B1" transform="translate(37,38)"/>
<path d="M0 0 C0.33 0 0.66 0 1 0 C1 5.28 1 10.56 1 16 C2.98 16 4.96 16 7 16 C6.01 16.66 5.02 17.32 4 18 C4.66 21.3 5.32 24.6 6 28 C7.65 28.33 9.3 28.66 11 29 C12.625 30.5 12.625 30.5 14 32 C20.73390425 34.24463475 30.87805685 34.08126556 37.625 31.9375 C41.25901986 29.85130341 43.30555424 27.75535559 45.7734375 24.42578125 C46.17820313 23.95527344 46.58296875 23.48476562 47 23 C47.66 23 48.32 23 49 23 C49.33 21.35 49.66 19.7 50 18 C51.48248924 21.85447203 50.56826379 24.27537349 49 28 C42.9025982 34.57340715 36.92463401 37.56388111 28.1875 38.20703125 C17.03363909 38.59115656 9.70653707 36.13343972 1.03125 29.1328125 C-2.20097177 25.73897964 -2.93639989 22.93810165 -3.25 18.3125 C-3 15 -3 15 -1 13 C-0.53513282 9.87803664 -0.53513282 9.87803664 -0.375 6.375 C-0.30023438 5.18648437 -0.22546875 3.99796875 -0.1484375 2.7734375 C-0.09945312 1.85820313 -0.05046875 0.94296875 0 0 Z " fill="#44A6C4" transform="translate(40,58)"/>
<path d="M0 0 C2.328125 1.5078125 2.328125 1.5078125 4.328125 3.5078125 C4.328125 4.4978125 4.328125 5.4878125 4.328125 6.5078125 C1.28218372 6.07267803 -1.42988313 5.60518628 -4.29296875 4.453125 C-8.70868904 3.21774429 -12.56963479 3.45256023 -17.109375 3.7578125 C-18.34010742 3.81775391 -18.34010742 3.81775391 -19.59570312 3.87890625 C-24.58778692 4.17373003 -28.89792881 5.05487236 -33.671875 6.5078125 C-36.109375 6.1328125 -36.109375 6.1328125 -37.671875 5.5078125 C-28.4954797 -7.51674857 -13.1233306 -7.26344769 0 0 Z " fill="#D4E2ED" transform="translate(80.671875,32.4921875)"/>
<path d="M0 0 C0.99 0 1.98 0 3 0 C3.9881534 3.88203122 4.6320732 6.50530232 3.046875 10.25390625 C-2.20986489 18.55782229 -9.28567295 25.3816771 -18.7734375 28.375 C-28.58601527 30.27574146 -39.38944387 30.63471976 -48 25 C-48.68191406 24.5875 -49.36382812 24.175 -50.06640625 23.75 C-55.82572568 19.90316805 -59.33463236 14.79586259 -63 9 C-62.34 8.34 -61.68 7.68 -61 7 C-60.30251417 5.68252676 -59.63040043 4.35085807 -59 3 C-58.76667969 3.845625 -58.53335938 4.69125 -58.29296875 5.5625 C-55.33431869 14.76254258 -51.56360266 19.4756037 -43 24 C-34.5802561 27.76505529 -23.75221649 26.91412189 -15.1953125 24.06640625 C-11.67936123 22.35847974 -9.58120281 19.90385316 -7 17 C-6.34 17 -5.68 17 -5 17 C-4.71125 16.4225 -4.4225 15.845 -4.125 15.25 C-3.43526248 13.87052496 -2.72162815 12.50230488 -1.96875 11.15625 C-0.90073721 8.77906023 -0.60335284 6.83799886 -0.375 4.25 C-0.30023438 3.45078125 -0.22546875 2.6515625 -0.1484375 1.828125 C-0.09945312 1.22484375 -0.05046875 0.6215625 0 0 Z " fill="#497895" transform="translate(94,69)"/>
<path d="M0 0 C0.66 0.33 1.32 0.66 2 1 C1.36378887 6.56202761 -1.19599499 8.5231789 -5.328125 12.00390625 C-14.93979731 19.18455618 -24.2543866 22.40311991 -36.1875 22.4375 C-37.11135498 22.44136719 -38.03520996 22.44523437 -38.98706055 22.44921875 C-46.59414762 22.32124532 -52.35202736 20.85389718 -59 17 C-59 16.67 -59 16.34 -59 16 C-49.59709426 16.73219348 -49.59709426 16.73219348 -45.125 18.0625 C-33.90150812 20.92426685 -24.79187502 18.41660628 -14.83740234 13.10009766 C-10.3069286 10.38759239 -6.61870341 6.80295512 -3 3 C-2.00110803 1.99889319 -1.00157853 0.99841898 0 0 Z " fill="#C7C8C8" transform="translate(100,85)"/>
<path d="M0 0 C1.32 0 2.64 0 4 0 C4 0.66 4 1.32 4 2 C4.66 2 5.32 2 6 2 C7.4453125 3.46875 7.4453125 3.46875 9.125 5.5 C12.8615876 9.90524012 16.86943366 13.96599235 21 18 C19.328125 18.80859375 19.328125 18.80859375 17 19 C14.421875 16.91015625 14.421875 16.91015625 11.75 14.0625 C10.85796875 13.12535156 9.9659375 12.18820313 9.046875 11.22265625 C8.37140625 10.48917969 7.6959375 9.75570312 7 9 C6.67 10.65 6.34 12.3 6 14 C-3.9 14 -13.8 14 -24 14 C-24 13.01 -24 12.02 -24 11 C-16.08 11 -8.16 11 0 11 C0 7.37 0 3.74 0 0 Z " fill="#ECF4F9" transform="translate(67,44)"/>
<path d="M0 0 C4.59306496 1.4859916 7.43569245 3.85014682 11 7 C10.67 7.99 10.34 8.98 10 10 C9.87398983 11.9153546 9.77267279 13.8323954 9.6875 15.75 C9.28620806 21.26107592 8.16233147 24.51152952 5 29 C-0.23435005 24.72706118 -4.67106815 20.18419194 -9 15 C-8.67 14.34 -8.34 13.68 -8 13 C-6.35 13 -4.7 13 -3 13 C-3 13.66 -3 14.32 -3 15 C-0.36 15 2.28 15 5 15 C5 15.66 5 16.32 5 17 C5.99 17 6.98 17 8 17 C6.95575894 11.04782596 5.46104815 7.78528876 1.2421875 3.4453125 C0 2 0 2 0 0 Z " fill="#669DC4" transform="translate(81,31)"/>
<path d="M0 0 C0.66 1.32 1.32 2.64 2 4 C2.33 4 2.66 4 3 4 C2.78410966 9.39725838 1.63433474 12.03444149 -2.0390625 15.73828125 C-7.3148906 19.13288778 -13.18869446 19.31785044 -19.25 19.25 C-20.30960938 19.26160156 -20.30960938 19.26160156 -21.390625 19.2734375 C-25.13543373 19.25925262 -26.80915344 19.12723104 -30 17 C-25.84621273 15.58594476 -22.99049568 14.93880541 -18.625 15.4375 C-15.2746142 15.55839021 -14.18626419 15.14127422 -11.4609375 13.07421875 C-7.21563597 8.92674767 -7.21563597 8.92674767 -4 4 C-4.66 3.67 -5.32 3.34 -6 3 C-3.375 0 -3.375 0 0 0 Z " fill="#42AFCB" transform="translate(84,73)"/>
<path d="M0 0 C0.33 -0.66 0.66 -1.32 1 -2 C1 -0.02 1 1.96 1 4 C0.01 4 -0.98 4 -2 4 C-2 3.34 -2 2.68 -2 2 C-4.64 2 -7.28 2 -10 2 C-10 1.34 -10 0.68 -10 0 C-12.31 0.66 -14.62 1.32 -17 2 C-17 1.34 -17 0.68 -17 0 C-23.06008137 -2.02002712 -28.04558935 -0.7863232 -34 1 C-39.03590618 2.06019077 -43.84361448 3 -49 3 C-49 1.35 -49 -0.3 -49 -2 C-48.34 -1.34 -47.68 -0.68 -47 0 C-44.51629727 -0.5270296 -42.17575745 -1.15006748 -39.75 -1.875 C-25.73110269 -5.6590494 -13.75556931 -3.73032388 0 0 Z " fill="#8EBADA" transform="translate(88,44)"/>
<path d="M0 0 C1.65 0 3.3 0 5 0 C2.70604255 5.2328614 -1.39213341 8.76051735 -5.375 12.75 C-6.14328125 13.54277344 -6.9115625 14.33554688 -7.703125 15.15234375 C-8.44820312 15.90128906 -9.19328125 16.65023437 -9.9609375 17.421875 C-10.63946777 18.10862305 -11.31799805 18.79537109 -12.01708984 19.50292969 C-14 21 -14 21 -18 21 C-18 17.37 -18 13.74 -18 10 C-16.02 9.67 -14.04 9.34 -12 9 C-11.67 9.99 -11.34 10.98 -11 12 C-9.35113941 10.37807179 -7.7059976 8.75236228 -6.0625 7.125 C-5.14597656 6.22007813 -4.22945312 5.31515625 -3.28515625 4.3828125 C-0.98812373 2.22317745 -0.98812373 2.22317745 0 0 Z " fill="#D2EDF6" transform="translate(85,63)"/>
<path d="M0 0 C1.48248924 3.85447203 0.56826379 6.27537349 -1 10 C-7.0974018 16.57340715 -13.07536599 19.56388111 -21.8125 20.20703125 C-28.5237119 20.43815717 -34.82843165 19.82054906 -41 17 C-41.33 16.34 -41.66 15.68 -42 15 C-40.865625 15.15726563 -39.73125 15.31453125 -38.5625 15.4765625 C-24.45637917 17.45515918 -24.45637917 17.45515918 -11.1875 13.875 C-7.98517719 11.32918984 -5.5277781 8.19689583 -3 5 C-2.34 5 -1.68 5 -1 5 C-0.67 3.35 -0.34 1.7 0 0 Z " fill="#4491B1" transform="translate(90,76)"/>
<path d="M0 0 C3 1 3 1 4.66796875 4.02734375 C6.30669325 8.22209315 6.41155994 12.1048026 6.3125 16.5625 C6.31572266 17.29146484 6.31894531 18.02042969 6.32226562 18.77148438 C6.27826677 23.21536885 5.6589753 26.81620971 4 31 C3.67 31 3.34 31 3 31 C3 28.69 3 26.38 3 24 C2.34 24 1.68 24 1 24 C-0.06309567 18.82682579 -0.11693938 13.87630664 -0.0625 8.625 C-0.05798828 7.79355469 -0.05347656 6.96210937 -0.04882812 6.10546875 C-0.03713164 4.07028103 -0.01919935 2.03513077 0 0 Z " fill="#114F82" transform="translate(94,45)"/>
<path d="M0 0 C0.66 0 1.32 0 2 0 C1.7834375 1.2684375 1.7834375 1.2684375 1.5625 2.5625 C-0.46954234 13.33454948 -0.46954234 13.33454948 1 24 C1.06740865 25.56118428 1.08514456 27.1250252 1.0625 28.6875 C1.05347656 29.49574219 1.04445313 30.30398437 1.03515625 31.13671875 C1.02355469 31.75160156 1.01195312 32.36648437 1 33 C0.01 33 -0.98 33 -2 33 C-5.9726774 23.63583183 -6.38456647 14.42177875 -2.8515625 4.83984375 C-2 3 -2 3 0 0 Z " fill="#275786" transform="translate(33,44)"/>
<path d="M0 0 C4.18423892 3.50897269 8.19588166 7.08060535 12 11 C11.34 12.32 10.68 13.64 10 15 C5.96678237 13.78065514 2.45730521 12.44045073 -1 10 C-1 9.34 -1 8.68 -1 8 C-9.25 7.67 -17.5 7.34 -26 7 C-26 6.67 -26 6.34 -26 6 C-17.42 6 -8.84 6 0 6 C0 4.02 0 2.04 0 0 Z " fill="#549ABF" transform="translate(73,52)"/>
<path d="M0 0 C1.5 1.25 1.5 1.25 3 3 C3 4.32 3 5.64 3 7 C-1.36832854 6.61574888 -5.45947672 6.155744 -9.6875 4.9375 C-21.4705724 1.89295861 -32.6576855 4.80417805 -44 8 C-44.33 8 -44.66 8 -45 8 C-45 6.35 -45 4.7 -45 3 C-44.01 3.33 -43.02 3.66 -42 4 C-40.80503906 3.69320312 -39.61007813 3.38640625 -38.37890625 3.0703125 C-31.03847806 1.30028017 -23.43813069 1.79002973 -15.9375 1.875 C-14.38867766 1.88504992 -12.83984901 1.89417221 -11.29101562 1.90234375 C-7.52718572 1.92419793 -3.76366377 1.95861657 0 2 C0 1.34 0 0.68 0 0 Z " fill="#A4C7E0" transform="translate(85,37)"/>
<path d="M0 0 C0 3.59149584 -1.13027144 4.88548788 -3.4609375 7.515625 C-10.05464095 13.87503442 -20.13642129 16.21709715 -29 17 C-31.85916135 16.71679719 -34.63047336 16.16602357 -37.4375 15.5625 C-38.16904297 15.41490234 -38.90058594 15.26730469 -39.65429688 15.11523438 C-41.43831121 14.75376742 -43.21948602 14.3783325 -45 14 C-45 13.34 -45 12.68 -45 12 C-45.66 12 -46.32 12 -47 12 C-46.67 11.34 -46.34 10.68 -46 10 C-45.030625 10.495 -44.06125 10.99 -43.0625 11.5 C-33.87694135 14.91598178 -21.49300966 14.27475484 -12.515625 10.48828125 C-7.75758645 7.67335472 -3.8629478 3.92160427 0 0 Z " fill="#C0CDCF" transform="translate(93,84)"/>
<path d="M0 0 C8.58 0 17.16 0 26 0 C26 0.33 26 0.66 26 1 C18.08 1.495 18.08 1.495 10 2 C9.67 5.96 9.34 9.92 9 14 C7.35 13.67 5.7 13.34 4 13 C3.4254048 9.26513121 3 5.78706732 3 2 C2.01 1.34 1.02 0.68 0 0 Z " fill="#4DBED4" transform="translate(41,73)"/>
<path d="M0 0 C0 1.32 0 2.64 0 4 C-2 5.75 -2 5.75 -4 7 C-4 5.02 -4 3.04 -4 1 C-10.6 1 -17.2 1 -24 1 C-23 -1 -23 -1 -21.0625 -2.125 C-13.49555186 -4.28698518 -7.06813759 -3.14139449 0 0 Z " fill="#41CFE3" transform="translate(77,69)"/>
<path d="M0 0 C0.99 0 1.98 0 3 0 C4.44620811 6.14638448 4.44620811 6.14638448 2.5625 9.75 C-4.21046064 15.69698983 -11.42541631 15.38585627 -20 15 C-20 14.34 -20 13.68 -20 13 C-16.94643603 11.98214534 -15.93013907 12.10578851 -12.875 12.5 C-9.44905401 12.57862827 -8.22593935 12.17066367 -5.4453125 10.0703125 C-1.21185866 5.9208206 -1.21185866 5.9208206 2 1 C1.34 0.67 0.68 0.34 0 0 Z " fill="#3FBED6" transform="translate(78,76)"/>
<path d="M0 0 C5.71006575 -0.31449588 10.14376444 0.82588902 14.83203125 4.1875 C15.82203125 5.6725 15.82203125 5.6725 16.83203125 7.1875 C13.83203125 7.1875 13.83203125 7.1875 10.26953125 5.6875 C5.46315629 3.82868095 0.9330658 3.51135616 -4.16796875 4.1875 C-6.19712644 5.12692486 -8.20672187 6.11348385 -10.16796875 7.1875 C-12.54296875 6.875 -12.54296875 6.875 -14.16796875 6.1875 C-11.54020127 3.08195662 -9.91860067 1.37515798 -5.91796875 0.375 C-3.94382221 0.27629267 -1.96926145 0.1703145 0 0 Z " fill="#3AB7D6" transform="translate(63.16796875,62.8125)"/>
<path d="M0 0 C7.26 0 14.52 0 22 0 C22 0.33 22 0.66 22 1 C21.27554688 1.02578125 20.55109375 1.0515625 19.8046875 1.078125 C13.55881857 1.44454931 9.89817361 2.10657995 5 6 C4.34 6 3.68 6 3 6 C3.33 6.99 3.66 7.98 4 9 C2.02 9.99 2.02 9.99 0 11 C0 7.37 0 3.74 0 0 Z " fill="#3496C5" transform="translate(47,59)"/>
<path d="M0 0 C-0.66 0.99 -1.32 1.98 -2 3 C-2.48726562 2.71125 -2.97453125 2.4225 -3.4765625 2.125 C-11.25198882 -1.94649596 -19.67507758 -2.5461602 -28.12109375 -0.09375 C-30.47909201 0.84275995 -32.74638126 1.83684194 -35 3 C-35.66 2.34 -36.32 1.68 -37 1 C-35.58521865 0.35004703 -34.16808513 -0.29478722 -32.75 -0.9375 C-31.96109375 -1.29714844 -31.1721875 -1.65679688 -30.359375 -2.02734375 C-20.08975079 -6.26101333 -9.97364012 -3.96116203 0 0 Z " fill="#B2BFCE" transform="translate(82,30)"/>
<path d="M0 0 C0.99 0.33 1.98 0.66 3 1 C2.38511719 1.63615234 2.38511719 1.63615234 1.7578125 2.28515625 C-2.03077668 6.40909902 -3.87908934 9.50753777 -5 15 C1.93 13.515 1.93 13.515 9 12 C4.9235562 16.0764438 3.40405931 16.84198729 -2 18 C-3.32 18 -4.64 18 -6 18 C-6.91016855 6.48805334 -6.91016855 6.48805334 -4.76953125 2.98828125 C-3.1875 1.625 -3.1875 1.625 0 0 Z " fill="#7AB0D6" transform="translate(44,32)"/>
<path d="M0 0 C0.33 0 0.66 0 1 0 C1 5.28 1 10.56 1 16 C1.66 16.33 2.32 16.66 3 17 C1.35 17.66 -0.3 18.32 -2 19 C0.99831859 24.02696818 4.14375707 28.59286523 8 33 C3.72068144 31.09808064 0.03924968 28.83105895 -2.3125 24.6875 C-3.1691479 21.33878548 -3.2597802 18.44208772 -3 15 C-2.34 14.34 -1.68 13.68 -1 13 C-0.53513282 9.87803664 -0.53513282 9.87803664 -0.375 6.375 C-0.30023438 5.18648437 -0.22546875 3.99796875 -0.1484375 2.7734375 C-0.09945312 1.85820313 -0.05046875 0.94296875 0 0 Z " fill="#368BB9" transform="translate(40,58)"/>
<path d="M0 0 C8.58 0 17.16 0 26 0 C25.34 1.32 24.68 2.64 24 4 C23.42781738 3.84007568 22.85563477 3.68015137 22.26611328 3.51538086 C20.03509878 3.0079825 18.02518102 2.8297337 15.7421875 2.75390625 C14.95199219 2.72103516 14.16179688 2.68816406 13.34765625 2.65429688 C11.69155652 2.5928145 10.03529468 2.5355611 8.37890625 2.48242188 C7.59128906 2.44826172 6.80367187 2.41410156 5.9921875 2.37890625 C5.27401855 2.3538501 4.55584961 2.32879395 3.81591797 2.30297852 C2 2 2 2 0 0 Z " fill="#F5FBFE" transform="translate(47,70)"/>
<path d="M0 0 C0.66 0 1.32 0 2 0 C1.67 4.95 1.34 9.9 1 15 C-0.32 15 -1.64 15 -3 15 C-3.125 8.25 -3.125 8.25 -2 6 C-2.66 5.67 -3.32 5.34 -4 5 C-2.71937515 3.2925002 -1.38232443 1.62626404 0 0 Z " fill="#3578AE" transform="translate(37,38)"/>
<path d="M0 0 C2.53446685 1.16975393 4.68691721 2.47225558 7 4.0625 C9.52028428 5.6901836 11.09722532 6.55341928 14 7 C14 7.66 14 8.32 14 9 C14.99 9 15.98 9 17 9 C17 9.66 17 10.32 17 11 C10.46905058 10.34690506 5.38139075 7.58759384 0 4 C0 2.68 0 1.36 0 0 Z " fill="#4D7B97" transform="translate(41,87)"/>
<path d="M0 0 C4.35559992 0 4.63339962 0.15256116 7.5625 2.9375 C9.85185399 5.09428561 10.93944555 5.97981518 14 7 C15.1875 10.0625 15.1875 10.0625 16 13 C11.46002289 11.54753932 8.65506692 9.16368341 5.1875 5.9375 C4.68541016 5.47794922 4.18332031 5.01839844 3.66601562 4.54492188 C2.41909095 3.389608 1.20620984 2.19776004 0 1 C0 0.67 0 0.34 0 0 Z " fill="#B8B8B8" transform="translate(25,88)"/>
<path d="M0 0 C7.92 0 15.84 0 24 0 C21.47871644 2.52128356 20.48760987 2.29353069 16.9921875 2.4140625 C15.51298828 2.47207031 15.51298828 2.47207031 14.00390625 2.53125 C12.45509766 2.57765625 12.45509766 2.57765625 10.875 2.625 C9.83472656 2.66367187 8.79445313 2.70234375 7.72265625 2.7421875 C5.14861689 2.83664766 2.57458845 2.92221214 0 3 C0 2.01 0 1.02 0 0 Z " fill="#FAFCFE" transform="translate(43,55)"/>
<path d="M0 0 C0.75539063 0.07734375 1.51078125 0.1546875 2.2890625 0.234375 C0.81184828 3.68639139 -1.14887751 5.88399436 -3.8359375 8.484375 C-4.56039062 9.19078125 -5.28484375 9.8971875 -6.03125 10.625 C-6.58554688 11.15609375 -7.13984375 11.6871875 -7.7109375 12.234375 C-8.375 10.5 -8.375 10.5 -8.7109375 8.234375 C-7.671875 6.09375 -7.671875 6.09375 -6.0859375 3.984375 C-5.57804687 3.27796875 -5.07015625 2.5715625 -4.546875 1.84375 C-2.7109375 0.234375 -2.7109375 0.234375 0 0 Z " fill="#CDE4EF" transform="translate(87.7109375,62.765625)"/>
<path d="M0 0 C4.07279807 2.27597539 7.65624609 4.7322405 11 8 C11.875 11.3125 11.875 11.3125 12 14 C7.4857225 10.33133644 3.49848894 6.66465192 0 2 C0 1.34 0 0.68 0 0 Z " fill="#68A0C8" transform="translate(72,44)"/>
<path d="M0 0 C1.984375 1.515625 1.984375 1.515625 4 4 C4.2911521 6.73682971 4.38322418 9.03940039 4.25 11.75 C4.23195313 12.44738281 4.21390625 13.14476562 4.1953125 13.86328125 C4.14838554 15.57611539 4.07664605 17.28823824 4 19 C3.34 19 2.68 19 2 19 C0.48766299 12.53205867 -0.21432579 6.64409958 0 0 Z " fill="#173D69" transform="translate(96,49)"/>
<path d="M0 0 C4.59306496 1.4859916 7.43569245 3.85014682 11 7 C10.34 8.98 9.68 10.96 9 13 C8.443125 12.2265625 8.443125 12.2265625 7.875 11.4375 C5.77240669 8.7041287 3.50950296 6.15170889 1.20703125 3.5859375 C0 2 0 2 0 0 Z " fill="#7691AC" transform="translate(81,31)"/>
<path d="M0 0 C0.33 0 0.66 0 1 0 C0.55966813 5.19591612 0.11696661 8.66335081 -3 13 C-3.99 12.34 -4.98 11.68 -6 11 C-6.99 11.495 -6.99 11.495 -8 12 C-6.59422879 8.98472262 -4.93873852 6.4052059 -2.9375 3.75 C-2.41027344 3.04359375 -1.88304688 2.3371875 -1.33984375 1.609375 C-0.89769531 1.07828125 -0.45554687 0.5471875 0 0 Z " fill="#D9D9D9" transform="translate(106,75)"/>
<path d="M0 0 C-0.33 0.99 -0.66 1.98 -1 3 C-3.0625 3.6875 -3.0625 3.6875 -5 4 C-5 3.34 -5 2.68 -5 2 C-11.01099874 -0.00366625 -16.17241292 1.09711442 -22 3 C-22.33 2.34 -22.66 1.68 -23 1 C-15.70181469 -2.33292578 -7.73356171 -1.37485541 0 0 Z " fill="#7EB2D6" transform="translate(76,42)"/>
<path d="M0 0 C0.99 0 1.98 0 3 0 C3.4626052 3.9784047 3.36873404 5.52281478 0.875 8.75 C-2.06762022 11.05292017 -4.40406836 12.08011051 -8 13 C-7.61328125 12.55269531 -7.2265625 12.10539062 -6.828125 11.64453125 C-3.81609925 8.1478974 -0.85678969 4.62592537 2 1 C1.34 0.67 0.68 0.34 0 0 Z " fill="#39CADE" transform="translate(78,76)"/>
<path d="M0 0 C0.99 0 1.98 0 3 0 C4.44608879 6.98942918 4.44608879 6.98942918 3.17578125 9.8671875 C2.0625 11.5 2.0625 11.5 0 14 C-0.66 13.67 -1.32 13.34 -2 13 C-1.34 8.71 -0.68 4.42 0 0 Z " fill="#456888" transform="translate(94,69)"/>
<path d="M0 0 C0.66 0 1.32 0 2 0 C2 5.61 2 11.22 2 17 C-1.13870968 10.72258065 -1.13870968 10.72258065 -1.125 6.5 C-1.12757812 5.7059375 -1.13015625 4.911875 -1.1328125 4.09375 C-1 2 -1 2 0 0 Z " fill="#1B4474" transform="translate(29,54)"/>
<path d="M0 0 C0.556875 0.226875 1.11375 0.45375 1.6875 0.6875 C0.6975 1.0175 -0.2925 1.3475 -1.3125 1.6875 C-1.6425 4.6575 -1.9725 7.6275 -2.3125 10.6875 C-5.11122437 8.15961993 -6.77023019 6.48338866 -7.3125 2.6875 C-2.88173077 -0.38942308 -2.88173077 -0.38942308 0 0 Z " fill="#359BC1" transform="translate(45.3125,74.3125)"/>
<path d="M0 0 C0.99 0 1.98 0 3 0 C4.25664978 2.90600261 5 4.79604584 5 8 C3.02 8.99 3.02 8.99 1 10 C0.87625 8.865625 0.7525 7.73125 0.625 6.5625 C0.41875 5.386875 0.2125 4.21125 0 3 C-0.66 2.67 -1.32 2.34 -2 2 C-1.34 1.34 -0.68 0.68 0 0 Z " fill="#32B4CF" transform="translate(81,73)"/>
<path d="M0 0 C0 3.3 0 6.6 0 10 C-0.99 9.67 -1.98 9.34 -3 9 C-3.12375 8.195625 -3.2475 7.39125 -3.375 6.5625 C-3.684375 5.2940625 -3.684375 5.2940625 -4 4 C-4.66 3.67 -5.32 3.34 -6 3 C-3.375 0 -3.375 0 0 0 Z " fill="#2794BA" transform="translate(88,69)"/>
<path d="M0 0 C0 3 0 3 -1.125 4.5625 C-4.72680947 7.32388726 -7.88635287 8.12373857 -12.375 7.625 C-13.24125 7.41875 -14.1075 7.2125 -15 7 C-12.49565271 5.59756552 -10.30079879 4.81271396 -7.5 4.0625 C-4.29210895 3.08867593 -2.47915387 2.18165541 0 0 Z " fill="#68A6D2" transform="translate(53,44)"/>
<path d="M0 0 C1.65 1.65 3.3 3.3 5 5 C4.01 5.495 4.01 5.495 3 6 C2.67 6.99 2.34 7.98 2 9 C1.01 9.33 0.02 9.66 -1 10 C-1.125 2.25 -1.125 2.25 0 0 Z " fill="#517699" transform="translate(91,39)"/>
<path d="M0 0 C1.94723595 2.92085393 2.55175352 4.59332678 3 8 C2.67 8.33 2.34 8.66 2 9 C1.76807135 10.51469448 1.58784762 12.03754562 1.4375 13.5625 C1.35371094 14.38878906 1.26992188 15.21507813 1.18359375 16.06640625 C1.12300781 16.70449219 1.06242187 17.34257813 1 18 C-2.56334257 12.65498614 -1.01378848 6.08273091 0 0 Z " fill="#15629F" transform="translate(33,50)"/>
<path d="M0 0 C2.32122883 2.23525739 4.40183354 4.49456436 6.4375 7 C8.78423355 9.74739538 11.10972362 11.85293754 14 14 C7.9643987 13.48266275 5.49006009 9.69141956 1.6875 5.375 C0 3 0 3 0 0 Z " fill="#C1CACC" transform="translate(32,80)"/>
<path d="M0 0 C1.60517097 0.08733576 3.20921662 0.19552224 4.8125 0.3125 C6.15248047 0.39951172 6.15248047 0.39951172 7.51953125 0.48828125 C10.37733086 1.07784306 11.1342244 1.83484494 13 4 C13.99 4.66 14.98 5.32 16 6 C10.03435204 5.49228528 5.36190101 3.61407872 0 1 C0 0.67 0 0.34 0 0 Z " fill="#AEAFAF" transform="translate(41,101)"/>
<path d="M0 0 C1.794375 0.7115625 1.794375 0.7115625 3.625 1.4375 C9.93351712 3.57734901 16.39095639 3.7273652 23 4 C23 4.33 23 4.66 23 5 C15.52256339 5.84349132 9.19701539 6.39900513 2 4 C2 3.34 2 2.68 2 2 C1.34 2 0.68 2 0 2 C0 1.34 0 0.68 0 0 Z " fill="#B2C1C5" transform="translate(46,94)"/>
<path d="M0 0 C0.99 0.33 1.98 0.66 3 1 C2.60167969 1.45890625 2.20335937 1.9178125 1.79296875 2.390625 C-0.91142062 5.52271585 -3.57991771 8.63877459 -6 12 C-6.71347678 5.93544734 -6.71347678 5.93544734 -4.76953125 3.38671875 C-3.1875 2 -3.1875 2 0 0 Z " fill="#809AB7" transform="translate(44,32)"/>
<path d="M0 0 C1.28529238 1.92793857 2.55732721 3.86481808 3.8125 5.8125 C6.04803637 9.06999586 8.43139319 12.00329205 11 15 C6.64301645 13.06356287 2.94562897 10.80119803 0.6875 6.5 C0 4 0 4 0 0 Z " fill="#438BAE" transform="translate(37,76)"/>
<path d="M0 0 C0.66 0 1.32 0 2 0 C2.433125 0.45375 2.86625 0.9075 3.3125 1.375 C4.96649628 3.17605555 4.96649628 3.17605555 7.5625 4 C10 5 10 5 12 8 C7.21760558 8 5.70642288 6.90067878 2 4 C0.625 1.75 0.625 1.75 0 0 Z " fill="#30A0C7" transform="translate(70,60)"/>
<path d="M0 0 C0.66 0 1.32 0 2 0 C1.4140625 6.15234375 1.4140625 6.15234375 1 8 C0.01 8.495 0.01 8.495 -1 9 C-1 8.01 -1 7.02 -1 6 C-1.99 5.67 -2.98 5.34 -4 5 C-2.71937515 3.2925002 -1.38232443 1.62626404 0 0 Z " fill="#5C7FA4" transform="translate(37,38)"/>
<path d="M0 0 C0.66 0.33 1.32 0.66 2 1 C1.33035714 8.09821429 1.33035714 8.09821429 -2 11 C-1.85892253 9.54119891 -1.71197585 8.08296449 -1.5625 6.625 C-1.48128906 5.81289062 -1.40007812 5.00078125 -1.31640625 4.1640625 C-1 2 -1 2 0 0 Z " fill="#387AA2" transform="translate(92,72)"/>
<path d="M0 0 C2.3125 0.1875 2.3125 0.1875 4 1 C1.75 3.5625 1.75 3.5625 -1 6 C-3.3125 5.8125 -3.3125 5.8125 -5 5 C-2.75 2.4375 -2.75 2.4375 0 0 Z " fill="#34B4D6" transform="translate(54,64)"/>
<path d="M0 0 C0.66 0.33 1.32 0.66 2 1 C1.75 3.375 1.75 3.375 1 6 C-1.0625 7.3125 -1.0625 7.3125 -3 8 C-1.125 1.125 -1.125 1.125 0 0 Z " fill="#2E70A1" transform="translate(92,47)"/>
<path d="M0 0 C0.99 0.33 1.98 0.66 3 1 C1.54550599 2.0055761 0.08627557 3.00430435 -1.375 4 C-2.59316406 4.8353125 -2.59316406 4.8353125 -3.8359375 5.6875 C-6 7 -6 7 -8 7 C-8 6.34 -8 5.68 -8 5 C-7.01 5 -6.02 5 -5 5 C-5 4.34 -5 3.68 -5 3 C-3.35 2.67 -1.7 2.34 0 2 C0 1.34 0 0.68 0 0 Z " fill="#AEAFAF" transform="translate(91,96)"/>
<path d="M0 0 C0.99 0.33 1.98 0.66 3 1 C1.02 3.31 -0.96 5.62 -3 8 C-3.66 7.67 -4.32 7.34 -5 7 C-3.35 4.69 -1.7 2.38 0 0 Z " fill="#497390" transform="translate(91,82)"/>
<path d="M0 0 C0.33 0 0.66 0 1 0 C1 1.98 1 3.96 1 6 C1.66 6 2.32 6 3 6 C3 7.32 3 8.64 3 10 C2.34 10 1.68 10 1 10 C-0.85064319 6.87703962 -1.29356154 4.62059232 -1 1 C-0.67 0.67 -0.34 0.34 0 0 Z " fill="#D9D9D9" transform="translate(23,77)"/>
<path d="M0 0 C0.99 0 1.98 0 3 0 C2.67 2.64 2.34 5.28 2 8 C1.34 8 0.68 8 0 8 C0 5.36 0 2.72 0 0 Z " fill="#2E628C" transform="translate(94,69)"/>
<path d="M0 0 C0.33 1.32 0.66 2.64 1 4 C1.66 4 2.32 4 3 4 C2.34 6.64 1.68 9.28 1 12 C0.67 12 0.34 12 0 12 C0 8.04 0 4.08 0 0 Z " fill="#2E5177" transform="translate(97,64)"/>
<path d="M0 0 C0.33 0.66 0.66 1.32 1 2 C1.66 2 2.32 2 3 2 C3 4.64 3 7.28 3 10 C2.34 10 1.68 10 1 10 C0.67 6.7 0.34 3.4 0 0 Z " fill="#1A598A" transform="translate(94,59)"/>
<path d="M0 0 C0.99 0.33 1.98 0.66 3 1 C4.1875 4.0625 4.1875 4.0625 5 7 C4.01 7.495 4.01 7.495 3 8 C0.37613513 4.93882432 0 4.26826873 0 0 Z " fill="#335378" transform="translate(94,45)"/>
<path d="M0 0 C3.3 0.33 6.6 0.66 10 1 C10.33 1.99 10.66 2.98 11 4 C10.01 4 9.02 4 8 4 C8 3.34 8 2.68 8 2 C5.36 2 2.72 2 0 2 C0 1.34 0 0.68 0 0 Z " fill="#86B2D1" transform="translate(78,44)"/>
<path d="M0 0 C0.33 1.32 0.66 2.64 1 4 C-0.45922693 3.88590407 -1.91740598 3.75834456 -3.375 3.625 C-4.59316406 3.52058594 -4.59316406 3.52058594 -5.8359375 3.4140625 C-8 3 -8 3 -10 1 C-9.36191406 1.01160156 -8.72382812 1.02320313 -8.06640625 1.03515625 C-7.24011719 1.04417969 -6.41382812 1.05320313 -5.5625 1.0625 C-4.32693359 1.07990234 -4.32693359 1.07990234 -3.06640625 1.09765625 C-1.00836062 1.23267348 -1.00836062 1.23267348 0 0 Z " fill="#A2C3DA" transform="translate(87,40)"/>
<path d="M0 0 C0.66 0 1.32 0 2 0 C1.34 2.64 0.68 5.28 0 8 C-0.33 7.34 -0.66 6.68 -1 6 C-1.66 5.67 -2.32 5.34 -3 5 C-1.625 2.5 -1.625 2.5 0 0 Z " fill="#365C88" transform="translate(33,44)"/>
<path d="M0 0 C2.91517292 1.07401108 4.77810176 1.77810176 7 4 C6.01 4.66 5.02 5.32 4 6 C2.62437146 4.71034824 1.29233607 3.37310707 0 2 C0 1.34 0 0.68 0 0 Z " fill="#91A3B9" transform="translate(81,31)"/>
<path d="M0 0 C2.79872437 2.52788007 4.45773019 4.20411134 5 8 C2 7 2 7 0.3125 3.9375 C-0.120625 2.968125 -0.55375 1.99875 -1 1 C-0.67 0.67 -0.34 0.34 0 0 Z " fill="#466889" transform="translate(32,76)"/>
<path d="M0 0 C2.18975773 3.28463659 2.99806563 6.20696275 4 10 C2 8.9375 2 8.9375 0 7 C-0.25 3.3125 -0.25 3.3125 0 0 Z " fill="#3A759F" transform="translate(34,72)"/>
<path d="M0 0 C0.99 0.33 1.98 0.66 3 1 C1.35 2.98 -0.3 4.96 -2 7 C-2.33 6.01 -2.66 5.02 -3 4 C-1.5625 1.8125 -1.5625 1.8125 0 0 Z " fill="#B0B0B0" transform="translate(99,88)"/>
<path d="M0 0 C0.33 0 0.66 0 1 0 C1 1.65 1 3.3 1 5 C-0.98 5.99 -0.98 5.99 -3 7 C-2.25 2.25 -2.25 2.25 0 0 Z " fill="#CFCFCF" transform="translate(106,75)"/>
</svg>
